<?xml version="1.0" encoding="utf-8"?><!-- Uploaded to: SVG Repo, www.svgrepo.com, Generator: SVG Repo Mixer Tools -->
<svg width="800px" height="800px" viewBox="0 0 24 24" stroke="#000000" stroke-width="0.5px" fill="none" xmlns="http://www.w3.org/2000/svg">
    <path fill-rule="evenodd" clip-rule="evenodd" d="M12 3C10.3431 3 9 4.34315 9 6V9C9 9.00076 9 9.00152 9 9.00228C9.29722 8.99999 9.61798 9 9.96448 9H14.0355C14.9373 8.99999 15.6647 8.99999 16.2567 9.04038C16.8654 9.08191 17.4037 9.16948 17.9134 9.3806C19.1386 9.88807 20.1119 10.8614 20.6194 12.0866C20.8305 12.5963 20.9181 13.1346 20.9596 13.7433C21 14.3353 21 15.0627 21 15.9645V16.0355C21 16.9373 21 17.6647 20.9596 18.2567C20.9181 18.8654 20.8305 19.4037 20.6194 19.9134C20.1119 21.1386 19.1386 22.1119 17.9134 22.6194C17.4037 22.8305 16.8654 22.9181 16.2567 22.9596C15.6647 23 14.9373 23 14.0355 23H9.96448C9.06272 23 8.33531 23 7.74331 22.9596C7.13456 22.9181 6.59628 22.8305 6.08658 22.6194C4.86144 22.1119 3.88807 21.1386 3.3806 19.9134C3.16948 19.4037 3.08191 18.8654 3.04038 18.2567C2.99999 17.6647 2.99999 16.9373 3 16.0355V15.9645C2.99999 15.0627 2.99999 14.3353 3.04038 13.7433C3.08191 13.1346 3.16948 12.5963 3.3806 12.0866C3.88807 10.8614 4.86144 9.88807 6.08658 9.3806C6.38131 9.25852 6.68559 9.17776 7.00753 9.12331C7.00256 9.08291 7 9.04175 7 9V6C7 3.23858 9.23858 1 12 1C14.7614 1 17 3.23858 17 6C17 6.55228 16.5523 7 16 7C15.4477 7 15 6.55228 15 6C15 4.34315 13.6569 3 12 3ZM7.87945 11.0357C7.37254 11.0703 7.07734 11.135 6.85195 11.2284C6.11687 11.5328 5.53284 12.1169 5.22836 12.8519C5.135 13.0773 5.07033 13.3725 5.03574 13.8794C5.00054 14.3953 5 15.0544 5 16C5 16.9456 5.00054 17.6047 5.03574 18.1206C5.07033 18.6275 5.135 18.9227 5.22836 19.1481C5.53284 19.8831 6.11687 20.4672 6.85195 20.7716C7.07734 20.865 7.37254 20.9297 7.87945 20.9643C8.39534 20.9995 9.05443 21 10 21H14C14.9456 21 15.6047 20.9995 16.1206 20.9643C16.6275 20.9297 16.9227 20.865 17.1481 20.7716C17.8831 20.4672 18.4672 19.8831 18.7716 19.1481C18.865 18.9227 18.9297 18.6275 18.9643 18.1206C18.9995 17.6047 19 16.9456 19 16C19 15.0544 18.9995 14.3953 18.9643 13.8794C18.9297 13.3725 18.865 13.0773 18.7716 12.8519C18.4672 12.1169 17.8831 11.5328 17.1481 11.2284C16.9227 11.135 16.6275 11.0703 16.1206 11.0357C15.6047 11.0005 14.9456 11 14 11H10C9.05443 11 8.39534 11.0005 7.87945 11.0357ZM12 14C12.5523 14 13 14.4477 13 15V17C13 17.5523 12.5523 18 12 18C11.4477 18 11 17.5523 11 17V15C11 14.4477 11.4477 14 12 14Z" fill="#FFFFFF"/>
</svg>